<svg width="82" height="63" viewBox="0 0 82 63" fill="none" xmlns="http://www.w3.org/2000/svg">
<path fill-rule="evenodd" clip-rule="evenodd" d="M0 14C0 6.26807 6.26802 0 14 0H23C30.732 0 37 6.26807 37 14V24.0244C37 31.7563 30.732 38.0244 23 38.0244H14C12.8594 38.0244 11.7507 37.8877 10.6893 37.6304C10.7348 48.8115 15.0074 58.4014 21.1004 62.585C20.1224 62.8579 19.1161 63 18.0889 63C8.55276 63 0.82222 50.7427 0.82222 35.6226C0.82222 33.6064 0.959641 31.6416 1.22044 29.7495C0.436218 28.002 0 26.064 0 24.0244V14ZM45 14C45 6.26807 51.268 0 59 0H68C75.732 0 82 6.26807 82 14V24.0244C82 31.7563 75.732 38.0244 68 38.0244H59C57.8594 38.0244 56.7507 37.8877 55.6893 37.6304C55.7348 48.8115 60.0074 58.4014 66.1003 62.585C65.1224 62.8579 64.1161 63 63.0889 63C53.5528 63 45.8222 50.7427 45.8222 35.6226C45.8222 33.6064 45.9596 31.6416 46.2204 29.7495C45.4362 28.002 45 26.064 45 24.0244V14Z" fill="#CCF739"/>
</svg>
